<?xml version="1.0" encoding="utf-8"?>
<!-- Generator: Adobe Illustrator 16.0.0, SVG Export Plug-In . SVG Version: 6.00 Build 0)  -->
<!DOCTYPE svg PUBLIC "-//W3C//DTD SVG 1.1//EN" "http://www.w3.org/Graphics/SVG/1.1/DTD/svg11.dtd">
<svg version="1.1"
	 id="svg2" xmlns:svg="http://www.w3.org/2000/svg" xmlns:rdf="http://www.w3.org/1999/02/22-rdf-syntax-ns#" xmlns:dc="http://purl.org/dc/elements/1.1/" xmlns:inkscape="http://www.inkscape.org/namespaces/inkscape" xmlns:sodipodi="http://sodipodi.sourceforge.net/DTD/sodipodi-0.dtd" xmlns:cc="http://creativecommons.org/ns#"
	 xmlns="http://www.w3.org/2000/svg" xmlns:xlink="http://www.w3.org/1999/xlink" x="0px" y="0px" width="60px" height="60px"
	 viewBox="0 0 60 60" enable-background="new 0 0 60 60" xml:space="preserve">
<sodipodi:namedview  height="49px" width="60px" xmlns:inkscape="http://www.inkscape.org/namespaces/inkscape" xmlns:sodipodi="http://sodipodi.sourceforge.net/DTD/sodipodi-0.dtd" bordercolor="#666666" id="base" pagecolor="#ffffff" gridtolerance="10000" showgrid="false" inkscape:cx="-0.21905163" inkscape:zoom="22.627417" borderopacity="1.0" inkscape:cy="16.236768" inkscape:grid-points="true" inkscape:document-units="px" inkscape:current-layer="layer1" inkscape:window-width="1680" inkscape:window-height="1003" inkscape:pageopacity="0.0" inkscape:pageshadow="2" inkscape:window-x="0" inkscape:grid-bbox="true" inkscape:window-y="20" inkscape:snap-global="true">
	
		<inkscape:grid  type="xygrid" color="#0000ff" originx="0px" originy="0px" spacingx="1px" spacingy="1px" empcolor="#0000ff" opacity="0.2" empopacity="0.4" empspacing="4" visible="true" enabled="true" id="GridFromPre046Settings">
		</inkscape:grid>
</sodipodi:namedview>
<g id="layer1" xmlns:inkscape="http://www.inkscape.org/namespaces/inkscape" inkscape:label="Calque 1" inkscape:groupmode="layer">
	<g id="g2406">
		<path id="path9344" fill="#732727" fill-opacity="0" d="M28.318-8.081c-0.439,0.059-0.864,0.208-1.243,0.44l-28.294,18.48
			c-0.994,0.573-1.608,1.632-1.609,2.778v32.78c-0.003,1.091,0.548,2.112,1.463,2.708L26.73,67.834
			c1.02,0.658,2.321,0.686,3.367,0.076l28.484-18.731c0.993-0.574,1.605-1.634,1.608-2.781v-32.78
			c0.004-1.091-0.548-2.111-1.463-2.707L30.44-7.568C29.814-7.981,29.064-8.162,28.318-8.081L28.318-8.081z"/>
		
			<path id="path9348" xmlns:sodipodi="http://sodipodi.sourceforge.net/DTD/sodipodi-0.dtd" sodipodi:nodetypes="ccccc" fill="#E25050" d="
			M3.891,14.943L28.603,30.7v28.651L3.891,45.026V14.943z"/>
		
			<path id="path9350" xmlns:sodipodi="http://sodipodi.sourceforge.net/DTD/sodipodi-0.dtd" sodipodi:nodetypes="ccccc" fill="#DC3F3F" d="
			M28.603,0.617l25.071,14.326L28.603,30.7L3.891,14.943L28.603,0.617z"/>
	</g>
</g>
<path id="path9348_1_" xmlns:sodipodi="http://sodipodi.sourceforge.net/DTD/sodipodi-0.dtd" sodipodi:nodetypes="ccccc" fill="#AA0000" d="
	M53.674,45.026L28.603,59.352V30.7l25.071-15.757V45.026z"/>
</svg>
